# AST/ASF file generated using VICON BodyLanguage
# -----------------------------------------------
:version 1.10
:name VICON
:units
  mass 1.0
  length 0.45
  angle deg
:documentation
   .ast/.asf automatically generated from VICON data using
   VICON BodyBuilder and BodyLanguage model FoxedUp or BRILLIANT.MOD
:root
   order TX TY TZ RX RY RZ
   axis XYZ
   position 0 0 0  
   orientation 0 -0 0 
:bonedata
  begin
     id 1 
     name lhipjoint
     direction 0.500677 -0.737119 0.453848 
     length 2.34727 
     axis 0 -0 0  XYZ
  end
  begin
     id 2 
     name lfemur
     direction 0.34202 -0.939693 0  
     length 7.53653  
     axis 0 -0 20  XYZ
    dof rx ry rz
    limits (-160.0 20.0)
           (-70.0 70.0)
           (-60.0 70.0)
  end
  begin
     id 3 
     name ltibia
     direction 0.34202 -0.939693 0   
     length 6.85572   
     axis 0 -0 20   XYZ
    dof rx
    limits (-10.0 170.0)
  end
  begin
     id 4 
     name lfoot
     direction 0.155313 -0.426718 0.890949   
     length 2.18324   
     axis -90 -1.13533e-015 20   XYZ
    dof rx rz
    limits (-45.0 90.0)
           (-70.0 20.0)
  end
  begin
     id 5 
     name ltoes
     direction 1.53474e-011 -4.21647e-011 1   
     length 1.06748   
     axis -90 -1.13533e-015 20   XYZ
    dof rx
    limits (-90.0 20.0)
  end
  begin
     id 6 
     name rhipjoint
     direction -0.632471 -0.659587 0.406111   
     length 2.62319  
     axis 0 -0 0  XYZ 
  end
  begin
     id 7 
     name rfemur
     direction -0.34202 -0.939693 0   
     length 7.21735   
     axis 0 -0 -20   XYZ
    dof rx ry rz
    limits (-160.0 20.0)
           (-70.0 70.0)
           (-70.0 60.0)
  end
  begin
     id 8 
     name rtibia
     direction -0.34202 -0.939693 0   
     length 7.02558   
     axis 0 -0 -20   XYZ
    dof rx
    limits (-10.0 170.0)
 end
 begin
     id 9 
     name rfoot
     direction -0.16057 -0.441164 0.882945   
     length 2.10014  
     axis -90 1.13533e-015 -20   XYZ
    dof rx rz
    limits (-45.0 90.0)
           (-20.0 70.0)
  end
  begin
     id 10 
     name rtoes
     direction -1.53553e-011 -4.2192e-011 1   
     length 1.02554   
     axis -90 1.13533e-015 -20   XYZ
    dof rx
    limits (-90.0 20.0)
  end
  begin
     id 11 
     name lowerback
     direction 0.0401429 0.998861 -0.0258085   
     length 1.80848   
     axis 0 -0 0   XYZ
    dof rx ry rz
    limits (-20.0 45.0)
           (-30.0 30.0)
           (-30.0 30.0)
  end
  begin
     id 12 
     name upperback
     direction -0.0130978 0.999914 -0.000352645   
     length 1.8116   
     axis 0 -0 0   XYZ
    dof rx ry rz
    limits (-20.0 45.0)
           (-30.0 30.0)
           (-30.0 30.0)
  end
  begin
     id 13 
     name thorax
     direction -0.0300198 0.999453 0.0138573   
     length 1.81778   
     axis 0 -0 0   XYZ
    dof rx ry rz
    limits (-20.0 45.0)
           (-30.0 30.0)
           (-30.0 30.0)
  end
  begin
     id 14 
     name lowerneck
     direction -0.0401726 0.999191 -0.00173647   
     length 2.10594   
     axis 0 -0 0   XYZ
    dof rx ry rz
    limits (-20.0 45.0)
           (-30.0 30.0)
           (-30.0 30.0)
  end
  begin
     id 15 
     name upperneck
     direction 0.0119835 0.998501 0.0534085   
     length 2.07325   
     axis 0 -0 0   XYZ
    dof rx ry rz
    limits (-20.0 45.0)
           (-30.0 30.0)
           (-30.0 30.0)
  end
  begin
     id 16
     name head
     direction 0.00628309 0.999826 0.0175921  
     length 2.15096  
     axis 0 -0 0   XYZ
    dof rx ry rz
    limits (-20.0 45.0)
           (-30.0 30.0)
           (-30.0 30.0)
  end
  begin
     id 17 
     name lclavicle
     direction 0.895501 0.429681 -0.115981  
     length 4.18092  
     axis 0 -0 0   XYZ
    dof ry rz
    limits (-20.0 10.0)
           (0.0 20.0)
  end
  begin
     id 18 
     name lhumerus
     direction 1 -4.48961e-011 -3.38433e-028   
     length 5.77237   
     axis 180 -30 -90   XYZ
    dof rx ry rz
    limits (-60.0 90.0)
           (-90.0 90.0)
           (-90.0 90.0)
  end
  begin
     id 19
     name lradius
     direction 1 -4.4901e-011 1.11983e-026   
     length 2.91878   
     axis 180 -30 -90   XYZ
    dof rx
    limits (-10.0 170.0)
  end
  begin
     id 20
     name lwrist
     direction 1 -4.48934e-011 1.88176e-026   
     length 1.45939   
     axis -1.23311e-014 90 90   XYZ
    dof ry
    limits (-180.0 0.0)
 end
  begin
     id 21 
     name lhand
     direction 1 -4.4895e-011 3.76352e-026   
     length 1.06566   
     axis -2.40147e-014 90 90   XYZ
    dof rx rz
    limits (-90.0 90.0)
           (-45.0 45.0)
  end
  begin
     id 22 
     name lfingers
     direction 1 -4.49005e-011 7.52705e-026   
     length 0.859162   
     axis -4.80295e-014 90 90   XYZ
    dof rx
    limits (0.0 90.0)
  end
  begin
     id 23
     name lthumb
     direction 0.707107 -6.34885e-011 0.707107   
     length 1.23359   
     axis -90 45 -9.86935e-015   XYZ
    dof rx rz
    limits (-45.0 45.0)
           (-45.0 45.0)
  end
  begin
     id 24 
     name rclavicle
     direction -0.91006 0.40451 -0.0903492   
     length 4.23293  
     axis 0 -0 0   XYZ 
    dof ry rz
    limits (-10.0 20.0)
           (-20.0 0.0)
  end
  begin
     id 25 
     name rhumerus
     direction -1 -4.4897e-011 1.7415e-027  
     length 5.49854   
     axis 180 30 90   XYZ
    dof rx ry rz
    limits (-90.0 60.0)
           (-90.0 90.0)
           (-90.0 90.0)
  end
  begin
     id 26 
     name rradius
     direction -1 -4.48963e-011 1.21259e-026   
     length 3.1186   
     axis 180 30 90   XYZ
    dof rx
    limits (-10.0 170.0)
  end
  begin
     id 27 
     name rwrist
     direction -1 -4.48967e-011 1.88176e-026   
     length 1.5593   
     axis -1.23311e-014 -90 -90   XYZ
    dof ry
    limits (-180.0 0.0)
  end
  begin
     id 28
     name rhand
     direction -1 -4.4895e-011 3.76352e-026   
     length 0.71207   
     axis -2.40147e-014 -90 -90   XYZ
    dof rx rz
    limits (-90.0 90.0)
           (-45.0 45.0)
  end
  begin
     id 29
     name rfingers
     direction -1 -4.49005e-011 7.52705e-026   
     length 0.574089   
     axis -4.80295e-014 -90 -90   XYZ
    dof rx
    limits (0.0 90.0)
  end
  begin
     id 30
     name rthumb
     direction -0.707107 -6.34982e-011 0.707107   
     length 0.824281   
     axis -90 -45 9.86935e-015   XYZ
    dof rx rz
    limits (-45.0 45.0)
           (-45.0 45.0)
  end
:hierarchy
  begin
    root lhipjoint rhipjoint lowerback
    lhipjoint lfemur
    lfemur ltibia
    ltibia lfoot
    lfoot ltoes
    rhipjoint rfemur
    rfemur rtibia
    rtibia rfoot
    rfoot rtoes
    lowerback upperback
    upperback thorax
    thorax lowerneck lclavicle rclavicle
    lowerneck upperneck
    upperneck head
    lclavicle lhumerus
    lhumerus lradius
    lradius lwrist
    lwrist lhand lthumb
    lhand lfingers
    rclavicle rhumerus
    rhumerus rradius
    rradius rwrist
    rwrist rhand rthumb
    rhand rfingers
  end

#!OML:ASF C:\ViconDB\ViconDB\414\Spring2016\042216\male.ASF
:FULLY-SPECIFIED
:DEGREES
372
root -1.78845 17.0471 12.7171 -138.774 82.9362 -145.092
lowerback 2.68393 -3.72238 7.52925
upperback -0.694346 -4.62651 1.45697
thorax -2.70243 -2.39447 -2.44403
lowerneck -2.93621 2.05311 -7.67492
upperneck -16.1824 3.89037 5.52988
head -4.60885 2.2745 2.85036
rclavicle 5.96975e-014 -2.44505e-014
rhumerus -46.8687 11.1945 -91.3062
rradius 91.8934
rwrist -2.86882
rhand 7.93414 -21.0376
rfingers 7.12502
rthumb 33.1644 -48.0029
lclavicle 5.96975e-014 -2.44505e-014
lhumerus -37.8826 -10.7428 103.026
lradius 91.4749
lwrist 12.2656
lhand -8.2192 3.162
lfingers 7.12502
lthumb 17.6979 32.3766
rfemur -23.6278 -5.05429 28.6369
rtibia 34.5198
rfoot -16.1855 0.342384
rtoes -12.2864
lfemur -3.42504 -4.3381 -12.7991
ltibia 74.1852
lfoot -8.71191 10.9464
ltoes -16.0062
373
root -1.35605 16.9378 12.7421 -138.288 82.2701 -144.078
lowerback 3.74012 -3.56688 7.8154
upperback -0.647954 -4.29362 1.64864
thorax -3.22285 -2.2417 -2.36036
lowerneck -2.66465 1.78245 -7.65188
upperneck -16.6159 3.52622 5.46451
head -4.76014 2.10395 2.83684
rclavicle 2.85256e-014 -2.20651e-014
rhumerus -45.1919 10.909 -91.5239
rradius 91.5353
rwrist -3.41557
rhand 7.43862 -21.6955
rfingers 7.12502
rthumb 32.6931 -48.76
lclavicle 2.85256e-014 -2.20651e-014
lhumerus -38.6226 -9.99205 102.502
lradius 88.8175
lwrist 11.3593
lhand -9.24997 2.41968
lfingers 7.12502
lthumb 16.7058 31.7208
rfemur -22.4651 -5.21692 29.4754
rtibia 36.73
rfoot -18.5666 -0.967396
rtoes -13.6211
lfemur -6.29958 -3.89358 -11.534
ltibia 77.8876
lfoot -9.73195 11.216
ltoes -15.1498
374
root -0.939614 16.8186 12.7595 -137.015 81.5446 -142.431
lowerback 4.40529 -3.37104 8.33982
upperback -0.540831 -3.92755 1.82749
thorax -3.47377 -2.06757 -2.4587
lowerneck -2.28993 1.5065 -7.43061
upperneck -17.1613 3.12528 5.17814
head -4.9565 1.91631 2.72246
rclavicle 1.41634e-015 4.17448e-015
rhumerus -43.2266 10.7062 -91.8119
rradius 91.4359
rwrist -4.28716
rhand 6.82141 -22.4365
rfingers 7.12502
rthumb 32.1057 -49.6212
lclavicle 1.41634e-015 4.17448e-015
lhumerus -39.2696 -8.8237 101.867
lradius 86.2018
lwrist 10.0211
lhand -10.1279 1.90663
lfingers 7.12502
lthumb 15.8605 31.277
rfemur -21.0414 -4.30064 30.1561
rtibia 38.4649
rfoot -21.0605 -2.25398
rtoes -13.0641
lfemur -9.52799 -3.57284 -10.352
ltibia 81.4866
lfoot -11.1538 11.4279
ltoes -14.3762
375
root -0.524707 16.705 12.768 -135.608 81.1715 -140.976
lowerback 4.37848 -3.0549 8.77566
upperback -0.27913 -3.4905 1.95132
thorax -3.15807 -1.83584 -2.62112
lowerneck -2.35439 1.17454 -7.37861
upperneck -17.5267 2.68342 4.95998
head -5.02701 1.72383 2.66407
rclavicle 3.23025e-014 -1.07344e-014
rhumerus -40.8162 10.7992 -91.9933
rradius 91.6515
rwrist -4.82327
rhand 6.0251 -23.2422
rfingers 7.12502
rthumb 31.3472 -50.5769
lclavicle 3.23025e-014 -1.07344e-014
lhumerus -39.7698 -7.67256 101.137
lradius 84.2063
lwrist 8.91027
lhand -11.8947 2.26272
lfingers 7.12502
lthumb 14.1585 31.7603
rfemur -19.8168 -3.01376 30.641
rtibia 39.751
rfoot -23.1666 -3.40402
rtoes -12.8983
lfemur -13.2095 -2.95493 -9.55667
ltibia 84.7914
lfoot -12.8087 11.3958
ltoes -13.9337
376
root -0.11937 16.6059 12.785 -135.574 80.9862 -140.853
lowerback 4.70235 -2.80321 8.84976
upperback -0.126813 -3.11929 1.999
thorax -3.14094 -1.64568 -2.63447
lowerneck -2.51507 0.936492 -7.25801
upperneck -17.709 2.36341 4.7257
head -5.03316 1.58504 2.58411
rclavicle -4.86029e-014 2.62396e-014
rhumerus -38.3917 11.4992 -92.4942
rradius 92.1785
rwrist -5.32456
rhand 3.67841 -23.699
rfingers 7.12502
rthumb 29.1086 -51.444
lclavicle -4.86029e-014 2.62396e-014
lhumerus -40.7247 -6.41765 100.282
lradius 83.2583
lwrist 8.27912
lhand -13.6664 2.55425
lfingers 7.12502
lthumb 12.4508 32.1634
rfemur -18.5028 -2.10464 31.0192
rtibia 40.7316
rfoot -24.9551 -4.55241
rtoes -12.8493
lfemur -16.8729 -2.39334 -9.20803
ltibia 87.5976
lfoot -14.4284 11.4955
ltoes -14.0674
377
root 0.292375 16.5226 12.803 -135.908 81.2837 -141.04
lowerback 4.93535 -2.50377 8.53415
upperback 0.190356 -2.73788 1.89653
thorax -2.88641 -1.43591 -2.59989
lowerneck -3.15213 0.685681 -7.19309
upperneck -17.6385 2.08353 4.68834
head -4.88662 1.46348 2.57541
rclavicle 1.46604e-014 -3.06128e-014
rhumerus -35.5579 12.7191 -92.991
rradius 92.8212
rwrist -5.58772
rhand 2.0472 -23.3357
rfingers 7.12502
rthumb 27.5497 -51.3397
lclavicle 1.46604e-014 -3.06128e-014
lhumerus -41.5341 -4.81743 99.2343
lradius 83.2717
lwrist 8.0424
lhand -14.7106 2.80105
lfingers 7.12502
lthumb 11.4439 32.4687
rfemur -16.9305 -0.914543 31.1461
rtibia 41.4544
rfoot -26.1257 -6.19055
rtoes -14.6934
lfemur -20.3371 -1.77063 -9.47928
ltibia 89.8408
lfoot -15.8917 11.7965
ltoes -13.9223
378
root 0.702982 16.4624 12.8173 -138.206 81.7857 -143.452
lowerback 5.18384 -2.23908 8.01337
upperback 0.220492 -2.41041 1.6005
thorax -2.94836 -1.27437 -2.63858
lowerneck -3.39939 0.520569 -7.00929
upperneck -17.6628 1.8843 4.62658
head -4.83837 1.36723 2.5333
rclavicle 4.24902e-014 1.63003e-014
rhumerus -32.7894 12.7431 -93.6248
rradius 93.5357
rwrist -2.25077
rhand 4.64937 -22.0197
rfingers 7.12502
rthumb 30.0355 -49.6005
lclavicle 4.24902e-014 1.63003e-014
lhumerus -42.9283 -3.33018 98.1844
lradius 84.4327
lwrist 9.1151
lhand -15.8333 3.34295
lfingers 7.12502
lthumb 10.3609 33.0677
rfemur -15.5249 0.446094 30.9058
rtibia 41.8859
rfoot -27.0625 -7.67845
rtoes -15.6599
lfemur -24.0398 -1.29945 -10.4029
ltibia 91.43
lfoot -16.8791 12.1762
ltoes -13.8139
379
root 1.11982 16.4174 12.8435 -138.166 82.2413 -143.464
lowerback 5.52915 -1.90358 7.49892
upperback 0.223452 -1.97211 1.44986
thorax -3.07929 -1.0574 -2.53692
lowerneck -3.60133 0.334552 -6.81227
upperneck -17.6986 1.65928 4.61379
head -4.80007 1.25399 2.50456
rclavicle -5.24295e-015 -1.11319e-014
rhumerus -30.2731 13.6399 -94.2334
rradius 94.6969
rwrist -0.340255
rhand 5.99317 -20.8483
rfingers 7.12502
rthumb 31.3168 -48.1889
lclavicle -5.24295e-015 -1.11319e-014
lhumerus -44.1157 -1.83755 97.1494
lradius 85.7578
lwrist 10.1649
lhand -16.6008 3.54316
lfingers 7.12502
lthumb 9.62052 33.3035
rfemur -13.8887 1.35361 31.0421
rtibia 41.9154
rfoot -27.8458 -8.52676
rtoes -16.7829
lfemur -27.4673 -0.522771 -10.9148
ltibia 92.3904
lfoot -18.1226 12.1039
ltoes -14.139
380
root 1.54872 16.3939 12.8454 -137.298 82.7407 -142.354
lowerback 6.12275 -1.56908 7.26084
upperback 0.23008 -1.49497 1.30924
thorax -3.35495 -0.827573 -2.57931
lowerneck -3.54925 0.14158 -6.72979
upperneck -17.8359 1.41391 4.66492
head -4.83524 1.13056 2.51498
rclavicle -2.00027e-014 6.75868e-015
rhumerus -28.1281 14.6791 -94.9413
rradius 96.2489
rwrist 0.888874
rhand 7.16724 -20.0406
rfingers 7.12502
rthumb 32.4349 -47.1584
lclavicle -2.00027e-014 6.75868e-015
lhumerus -44.9898 -0.290418 96.1333
lradius 86.9958
lwrist 10.7146
lhand -16.4864 3.55289
lfingers 7.12502
lthumb 9.73091 33.3081
rfemur -11.6735 1.91917 31.121
rtibia 41.4483
rfoot -27.9502 -9.07621
rtoes -17.7754
lfemur -30.2602 -0.0714723 -11.5954
ltibia 92.6544
lfoot -19.4707 12.4073
ltoes -12.5388
